<?xml version="1.0" standalone="no"?>
<!DOCTYPE svg PUBLIC "-//W3C//DTD SVG 20010904//EN"
 "http://www.w3.org/TR/2001/REC-SVG-20010904/DTD/svg10.dtd">
<svg version="1.0" xmlns="http://www.w3.org/2000/svg"
 width="200.000000pt" height="200.000000pt" viewBox="0 0 200.000000 200.000000"
 preserveAspectRatio="xMidYMid meet">
<metadata>
Created by potrace 1.14, written by Peter Selinger 2001-2017
</metadata>
<g transform="translate(0.000000,200.000000) scale(0.100000,-0.100000)"
fill="#000000" stroke="none">
<path d="M973 1936 c-6 -8 -9 -17 -6 -20 4 -3 -1 -6 -10 -6 -9 0 -17 -5 -17
-11 0 -5 -4 -8 -9 -4 -5 3 -12 -4 -16 -15 -4 -12 -11 -17 -18 -14 -7 4 -9 3
-4 -1 4 -5 1 -16 -7 -24 -8 -9 -17 -31 -21 -48 -3 -18 -9 -43 -15 -57 -5 -15
-7 -26 -4 -26 4 0 1 -7 -6 -15 -6 -8 -9 -19 -5 -25 3 -5 1 -10 -5 -10 -6 0 -9
-4 -5 -9 3 -5 1 -12 -5 -16 -6 -4 -8 -11 -5 -16 4 -5 1 -9 -5 -9 -7 0 -10 -7
-6 -15 3 -8 1 -15 -5 -15 -6 0 -9 -7 -5 -15 3 -8 -2 -18 -10 -23 -8 -5 -16
-15 -17 -23 -2 -8 -6 -19 -10 -26 -4 -6 -1 -14 5 -16 7 -3 5 -6 -6 -6 -11 -1
-16 -4 -13 -7 4 -4 -3 -20 -15 -37 -13 -17 -16 -27 -7 -22 11 7 12 6 2 -7 -7
-8 -10 -18 -6 -21 3 -4 1 -7 -6 -7 -7 0 -9 -5 -5 -12 6 -10 5 -10 -8 -1 -8 7
-18 10 -22 6 -4 -4 -27 -8 -52 -9 -25 -1 -52 -5 -59 -8 -8 -3 -16 0 -19 7 -3
9 -5 9 -5 0 -1 -7 -8 -10 -18 -6 -12 5 -14 3 -8 -8 6 -11 5 -12 -6 -1 -15 14
-33 17 -25 4 3 -5 -1 -9 -9 -9 -8 0 -12 4 -9 9 3 4 -5 4 -18 0 -13 -5 -44 -8
-70 -8 -29 1 -50 -4 -53 -11 -2 -7 -11 -10 -20 -7 -8 3 -12 11 -9 18 3 6 0 4
-8 -4 -8 -9 -29 -15 -53 -14 -22 1 -46 -4 -54 -10 -11 -8 -13 -8 -7 2 5 8 0
12 -14 12 -11 0 -23 -7 -26 -15 -4 -8 -10 -15 -16 -15 -5 0 -6 6 -3 13 4 6 0
3 -9 -7 -8 -10 -12 -24 -9 -30 4 -6 -2 -4 -12 4 -10 8 -16 10 -12 3 4 -6 3
-13 -2 -15 -4 -1 -12 -14 -16 -28 -7 -22 -6 -23 9 -11 21 17 21 7 0 -13 -9 -9
-11 -16 -4 -16 6 0 8 -4 5 -10 -3 -5 0 -10 7 -10 9 0 9 -3 -2 -10 -13 -9 -13
-10 0 -11 8 -1 19 -1 23 0 5 1 6 -2 3 -7 -7 -12 33 -54 45 -47 5 4 9 0 9 -8 0
-8 8 -21 18 -28 16 -13 16 -12 3 6 -8 11 1 5 20 -13 49 -47 81 -72 91 -72 5 0
6 -5 3 -11 -4 -6 2 -13 14 -16 11 -3 18 -9 15 -14 -3 -5 3 -9 12 -9 10 0 14
-3 11 -6 -3 -4 7 -19 23 -34 17 -16 30 -33 30 -39 0 -6 7 -7 17 -4 10 4 14 2
10 -4 -4 -6 1 -17 10 -24 9 -8 14 -9 10 -3 -3 6 0 11 7 11 8 0 12 -7 8 -15 -3
-10 -1 -13 6 -8 7 4 12 3 12 -2 0 -5 9 -12 20 -15 14 -3 20 -14 20 -32 0 -14
-4 -24 -8 -21 -5 3 -8 -5 -7 -17 1 -12 -2 -28 -8 -34 -5 -7 -6 -13 -1 -13 5 0
2 -5 -6 -10 -12 -8 -12 -10 -1 -10 11 0 11 -3 1 -15 -6 -8 -9 -19 -5 -25 3 -5
0 -10 -7 -10 -9 0 -9 -3 2 -10 12 -7 12 -10 1 -10 -7 0 -11 -6 -8 -14 3 -8 3
-17 -1 -20 -3 -4 -7 -17 -9 -29 -2 -12 -6 -29 -10 -37 -3 -8 -5 -21 -4 -27 1
-7 -3 -13 -8 -13 -6 0 -8 -6 -5 -14 3 -8 1 -24 -6 -35 -8 -16 -8 -21 2 -21 8
0 9 -3 3 -8 -10 -7 -17 -27 -18 -49 0 -7 -3 -13 -7 -13 -9 0 -6 -32 3 -48 5
-7 3 -10 -6 -7 -10 4 -13 -5 -13 -35 0 -31 4 -39 15 -35 11 4 12 3 1 -10 -8
-10 -9 -15 -1 -15 6 0 11 -10 12 -22 0 -13 3 -17 6 -10 2 6 9 12 14 12 6 0 8
-4 5 -8 -2 -4 5 -14 17 -21 18 -11 20 -11 10 0 -7 7 -13 17 -13 22 0 6 5 5 13
0 6 -6 23 -8 37 -6 14 2 33 4 42 5 9 1 15 5 13 9 -2 3 16 16 41 28 24 13 59
35 76 49 18 15 29 20 24 12 -4 -9 -2 -8 7 2 8 10 16 15 19 13 3 -3 11 1 18 10
7 8 19 15 26 15 8 0 14 4 14 10 0 5 11 12 25 16 14 3 25 10 25 16 0 5 5 6 10
3 6 -3 10 -1 10 5 0 7 7 9 16 6 8 -3 12 -2 9 4 -6 9 8 14 28 11 4 0 7 3 7 8 0
5 9 13 20 16 11 4 18 10 15 15 -3 4 7 11 22 15 16 3 31 11 34 17 5 7 16 6 37
-3 17 -7 28 -17 26 -21 -3 -4 4 -8 15 -8 12 0 21 -3 21 -8 0 -4 14 -13 30 -20
17 -8 27 -18 24 -24 -4 -6 -2 -8 4 -4 6 3 13 2 17 -4 4 -6 11 -8 16 -5 5 4 9
1 9 -5 0 -6 5 -8 10 -5 6 3 13 -1 16 -9 3 -9 12 -16 20 -16 8 0 14 -5 14 -11
0 -5 4 -8 9 -4 5 3 16 -2 24 -10 9 -8 20 -15 26 -15 6 0 11 -5 11 -11 0 -5 5
-7 10 -4 6 3 10 2 10 -2 0 -5 16 -17 35 -27 19 -11 35 -25 35 -32 0 -8 6 -11
17 -7 11 4 14 3 9 -5 -5 -8 0 -12 14 -12 12 0 19 -4 16 -9 -4 -5 2 -8 11 -7
10 2 21 -2 25 -8 5 -8 8 -7 8 2 0 6 5 12 11 12 5 0 8 -4 5 -8 -2 -4 7 -7 21
-6 36 1 98 61 83 79 -8 9 -8 15 0 20 7 4 6 13 -2 28 -11 21 -10 21 8 7 19 -14
19 -14 1 7 -11 12 -16 27 -12 32 3 6 2 11 -4 11 -5 0 -8 9 -6 20 2 11 1 20 -3
20 -4 0 -8 8 -9 18 -2 25 -10 77 -13 80 -1 1 -4 7 -5 12 -1 6 -4 13 -5 18 -2
4 -4 21 -5 37 -1 17 -6 29 -13 28 -8 -2 -9 4 -2 22 6 15 6 26 -1 30 -5 4 -7
11 -3 16 3 6 -2 17 -12 24 -12 9 -14 14 -6 15 8 0 10 5 5 13 -4 6 -8 19 -8 27
0 8 -3 20 -7 25 -4 6 -3 17 3 25 5 8 9 20 9 25 0 6 -5 3 -10 -5 -7 -12 -10 -8
-10 15 0 21 9 38 30 57 16 14 32 23 35 20 3 -3 5 0 5 7 0 7 5 9 10 6 6 -4 10
-3 9 2 -3 20 2 34 11 28 6 -3 10 -1 10 5 0 7 7 10 14 7 10 -4 13 -1 10 7 -3 8
0 17 7 22 8 5 10 3 4 -7 -4 -8 5 0 20 16 15 17 32 29 37 27 6 -2 8 4 4 13 -3
9 -2 13 4 10 13 -8 42 20 32 30 -4 5 1 5 11 2 11 -4 17 -1 17 9 0 8 4 13 9 10
5 -3 11 4 14 15 4 16 11 20 24 15 9 -4 15 -4 11 -1 -9 9 33 55 49 55 8 0 12 4
8 9 -7 12 29 33 40 23 4 -4 2 3 -4 16 -12 22 -11 23 9 12 20 -11 21 -10 10 10
-6 12 -9 24 -6 27 3 4 0 13 -7 21 -6 9 -7 13 -1 9 6 -3 11 0 11 7 0 8 -6 12
-14 9 -9 -4 -11 0 -6 13 5 13 3 15 -8 9 -12 -8 -12 -6 -1 8 12 14 11 15 -13
11 -18 -3 -24 -1 -20 6 5 7 0 11 -11 10 -11 -1 -21 -1 -24 0 -3 1 -32 3 -65 5
-84 3 -87 4 -81 13 3 5 -1 9 -9 9 -8 0 -12 -5 -8 -10 3 -5 -4 -6 -18 -2 -13 5
-46 9 -72 10 -26 1 -50 5 -54 9 -3 3 -12 1 -20 -5 -10 -9 -13 -8 -13 0 0 8 -8
10 -21 6 -15 -5 -19 -4 -15 4 10 15 -7 14 -23 -1 -10 -9 -12 -9 -7 -1 8 14
-10 27 -19 13 -4 -6 -11 -7 -18 -3 -13 8 -57 11 -52 3 2 -3 -5 -6 -15 -6 -10
0 -16 5 -13 10 4 5 -1 7 -9 3 -11 -4 -21 7 -34 38 -10 25 -22 41 -28 38 -6 -4
-5 1 3 10 9 11 10 17 2 17 -6 0 -11 9 -11 19 0 11 -5 21 -10 23 -6 2 -12 13
-13 26 0 12 -5 22 -10 22 -5 0 -7 7 -3 15 3 8 1 15 -4 15 -5 0 -13 12 -16 28
-4 15 -14 36 -23 46 -9 11 -11 16 -4 13 7 -5 9 0 6 13 -3 11 -10 17 -16 13 -6
-4 -8 0 -4 10 3 10 2 17 -4 17 -6 0 -7 5 -4 10 3 6 1 10 -4 10 -6 0 -11 9 -11
20 0 11 -4 20 -10 20 -5 0 -10 5 -10 11 0 5 5 7 11 4 6 -4 5 2 -3 14 -7 12
-16 21 -21 21 -4 0 -6 4 -2 9 3 5 0 13 -6 16 -5 4 -8 14 -5 22 3 8 1 11 -4 8
-9 -6 -15 9 -11 29 1 5 -6 3 -15 -5 -16 -12 -17 -12 -11 3 4 12 2 15 -9 11 -8
-3 -22 1 -31 8 -9 8 -14 9 -10 3 4 -7 -1 -14 -12 -17 -14 -3 -18 -1 -14 9 6
17 2 17 -14 0z"/>
</g>
</svg>
